<svg version="1.1" viewBox="0.0 0.0 1973.015748031496 394.005249343832" fill="none" stroke="none" stroke-linecap="square" stroke-miterlimit="10" xmlns:xlink="http://www.w3.org/1999/xlink" xmlns="http://www.w3.org/2000/svg"><clipPath id="p.0"><path d="m0 0l1973.0157 0l0 394.00525l-1973.0157 0l0 -394.00525z" clip-rule="nonzero"/></clipPath><g clip-path="url(#p.0)"><path fill="#000000" fill-opacity="0.0" d="m0 0l1973.0157 0l0 394.00525l-1973.0157 0z" fill-rule="evenodd"/><path fill="#000000" fill-opacity="0.0" d="m0 0l2001.7953 0l0 386.58267l-2001.7953 0z" fill-rule="evenodd"/><path fill="#b93b3b" d="m369.4375 351.84882q-9.65625 0 -16.015625 -6.359375q-6.359375 -6.359375 -6.359375 -16.015625l0 -125.453125q0 -27.640625 -13.609375 -41.015625q-13.59375 -13.375 -35.515625 -13.375q-22.8125 0 -37.515625 15.796875q-14.6875 15.78125 -14.6875 40.34375l-36.40625 0q0 -28.5 12.28125 -50.21875q12.28125 -21.71875 34.421875 -34.0q22.15625 -12.28125 50.671875 -12.28125q25.0 0 44.296875 10.96875q19.3125 10.96875 30.0625 32.25q10.75 21.265625 10.75 51.53125l0 125.453125q0 9.65625 -6.15625 16.015625q-6.140625 6.359375 -16.21875 6.359375zm-292.59375 0q-9.640625 0 -16.0 -6.359375q-6.359375 -6.359375 -6.359375 -16.015625l0 -195.20312q0 -10.078125 6.359375 -16.21875q6.359375 -6.140625 16.0 -6.140625q10.09375 0 16.234375 6.140625q6.140625 6.140625 6.140625 16.21875l0 195.20312q0 9.65625 -6.140625 16.015625q-6.140625 6.359375 -16.234375 6.359375zm146.51562 0q-9.640625 0 -16.015625 -6.359375q-6.359375 -6.359375 -6.359375 -16.015625l0 -125.453125q0 -27.640625 -13.59375 -41.015625q-13.59375 -13.375 -35.53125 -13.375q-22.8125 0 -37.734375 15.796875q-14.90625 15.78125 -14.90625 40.34375l-27.625 0q0 -28.5 11.390625 -50.21875q11.40625 -21.71875 31.578125 -34.0q20.1875 -12.28125 46.078125 -12.28125q25.0 0 44.296875 10.96875q19.296875 10.96875 30.046875 32.25q10.75 21.265625 10.75 51.53125l0 125.453125q0 9.65625 -6.140625 16.015625q-6.140625 6.359375 -16.234375 6.359375zm269.33466 -0.4375q-9.640625 0 -16.015625 -6.359375q-6.359375 -6.359375 -6.359375 -16.015625l0 -195.20312q0 -10.078125 6.359375 -16.21875q6.375 -6.140625 16.015625 -6.140625q10.09375 0 16.234375 6.140625q6.140625 6.140625 6.140625 16.21875l0 195.20312q0 9.65625 -6.140625 16.015625q-6.140625 6.359375 -16.234375 6.359375zm-0.046875 -278.98438q-11.84375 0 -20.40625 -8.546875q-8.546875 -8.5625 -8.546875 -20.40625q0 -11.84375 8.546875 -20.390625q8.5625 -8.5625 20.40625 -8.5625q11.84375 0 20.390625 8.5625q8.5625 8.546875 8.5625 20.390625q0 11.84375 -8.5625 20.40625q-8.546875 8.546875 -20.390625 8.546875zm308.4273 279.42188q-9.65625 0 -16.015625 -6.359375q-6.359375 -6.359375 -6.359375 -16.015625l0 -107.90625q0 -25.0 -9.21875 -40.78125q-9.203125 -15.796875 -24.78125 -23.46875q-15.5625 -7.6875 -35.75 -7.6875q-18.421875 0 -33.34375 7.453125q-14.90625 7.453125 -23.6875 19.96875q-8.765625 12.5 -8.765625 28.71875l-27.625 0q0 -27.625 13.375 -49.34375q13.375 -21.71875 36.625 -34.4375q23.25 -12.71875 52.203125 -12.71875q30.265625 0 54.171875 12.953125q23.90625 12.9375 37.71875 37.9375q13.828125 25.0 13.828125 61.40625l0 107.90625q0 9.65625 -6.375 16.015625q-6.359375 6.359375 -16.0 6.359375zm-180.29688 0q-9.640625 0 -16.0 -6.359375q-6.359375 -6.359375 -6.359375 -16.015625l0 -195.64062q0 -10.078125 6.359375 -16.21875q6.359375 -6.140625 16.0 -6.140625q10.09375 0 16.234375 6.140625q6.140625 6.140625 6.140625 16.21875l0 195.64062q0 9.65625 -6.140625 16.015625q-6.140625 6.359375 -16.234375 6.359375zm303.55426 -0.4375q-9.640625 0 -16.015625 -6.359375q-6.359375 -6.359375 -6.359375 -16.015625l0 -195.20312q0 -10.078125 6.359375 -16.21875q6.375 -6.140625 16.015625 -6.140625q10.09375 0 16.234375 6.140625q6.140625 6.140625 6.140625 16.21875l0 195.20312q0 9.65625 -6.140625 16.015625q-6.140625 6.359375 -16.234375 6.359375zm-0.046875 -278.98438q-11.84375 0 -20.40625 -8.546875q-8.546875 -8.5625 -8.546875 -20.40625q0 -11.84375 8.546875 -20.390625q8.5625 -8.5625 20.40625 -8.5625q11.84375 0 20.390625 8.5625q8.5625 8.546875 8.5625 20.390625q0 11.84375 -8.5625 20.40625q-8.546875 8.546875 -20.390625 8.546875zm162.78668 278.98438q-19.296875 0 -34.21875 -10.53125q-14.90625 -10.53125 -23.25 -28.734375q-8.328125 -18.203125 -8.328125 -41.890625l0 -239.5q0 -9.65625 6.140625 -15.796875q6.140625 -6.140625 15.796875 -6.140625q9.65625 0 15.796875 6.140625q6.140625 6.140625 6.140625 15.796875l0 239.5q0 16.234375 6.140625 26.765625q6.140625 10.53125 15.78125 10.53125l10.96875 0q8.78125 0 14.25 6.140625q5.484375 6.140625 5.484375 15.78125q0 9.65625 -8.328125 15.796875q-8.328125 6.140625 -21.5 6.140625l-0.875 0zm161.43689 1.75q-32.03125 0 -57.46875 -16.0q-25.4375 -16.015625 -40.140625 -43.421875q-14.6875 -27.421875 -14.6875 -62.078125q0 -34.65625 16.0 -62.28125q16.015625 -27.640625 43.421875 -43.65625q27.421875 -16.015625 61.640625 -16.015625q34.21875 0 61.40625 16.015625q27.203125 16.015625 43.203125 43.65625q16.015625 27.625 16.015625 62.28125l-17.109375 0q0 34.65625 -14.6875 62.078125q-14.6875 27.40625 -40.140625 43.421875q-25.4375 16.0 -57.453125 16.0zm8.765625 -39.46875q22.375 0 39.921875 -10.75q17.546875 -10.75 27.625 -29.390625q10.09375 -18.640625 10.09375 -41.890625q0 -23.6875 -10.09375 -42.328125q-10.078125 -18.640625 -27.625 -29.390625q-17.546875 -10.75 -39.921875 -10.75q-21.9375 0 -39.703125 10.75q-17.765625 10.75 -28.078125 29.390625q-10.296875 18.640625 -10.296875 42.328125q0 23.25 10.296875 41.890625q10.3125 18.640625 28.078125 29.390625q17.765625 10.75 39.703125 10.75zm98.265625 38.15625q-9.65625 0 -16.015625 -6.359375q-6.359375 -6.359375 -6.359375 -16.015625l0 -67.109375l8.328125 -46.5l36.40625 15.796875l0 97.8125q0 9.65625 -6.359375 16.015625q-6.359375 6.359375 -16.0 6.359375zm209.67114 1.3125q-34.21875 0 -61.421875 -16.0q-27.1875 -16.015625 -42.984375 -43.640625q-15.78125 -27.640625 -16.21875 -62.296875l0 -200.03125q0 -10.09375 6.359375 -16.234375q6.359375 -6.140625 16.0 -6.140625q10.09375 0 16.234375 6.140625q6.140625 6.140625 6.140625 16.234375l0 118.4375q15.359375 -18.421875 37.0625 -29.171875q21.71875 -10.75 47.59375 -10.75q32.03125 0 57.46875 16.015625q25.4375 16.015625 40.125 43.4375q14.703125 27.40625 14.703125 62.0625q0 34.65625 -16.015625 62.296875q-16.0 27.625 -43.203125 43.640625q-27.1875 16.0 -61.84375 16.0zm0 -39.46875q22.375 0 39.921875 -10.75q17.546875 -10.75 27.84375 -29.609375q10.3125 -18.859375 10.3125 -42.109375q0 -23.6875 -10.3125 -42.109375q-10.296875 -18.421875 -27.84375 -29.171875q-17.546875 -10.75 -39.921875 -10.75q-21.9375 0 -39.703125 10.75q-17.765625 10.75 -27.859375 29.171875q-10.078125 18.421875 -10.078125 42.109375q0 23.25 10.078125 42.109375q10.09375 18.859375 27.859375 29.609375q17.765625 10.75 39.703125 10.75zm210.56287 29.390625l-29.84375 -26.328125l149.15625 -196.95312l29.390625 26.3125l-148.70312 196.96875zm-13.171875 8.328125q-20.609375 0 -20.609375 -20.609375q0 -20.625 20.609375 -20.625l149.59375 0q20.609375 0 20.609375 20.625q0 20.609375 -20.609375 20.609375l-149.59375 0zm-4.375 -198.71875q-20.625 0 -20.625 -20.609375q0 -20.609375 20.625 -20.609375l149.57812 0q20.609375 0 20.609375 20.609375q0 20.609375 -20.609375 20.609375l-149.57812 0z" fill-rule="nonzero"/></g></svg>