<svg xmlns="http://www.w3.org/2000/svg" xmlns:xlink="http://www.w3.org/1999/xlink" width="316.631" height="174.784" viewBox="0 0 316.631 174.784"><defs><style>.a{fill:#f7be00;}.ab,.b{fill:#fff;}.c,.h,.i,.k,.n,.o,.p,.r,.s,.v,.w{fill:none;}.c{stroke:#c5e4f2;stroke-width:4.269px;}.c,.i,.k,.n,.p,.r,.s,.v,.w{stroke-linecap:round;}.c,.h,.i,.k,.n,.o,.p,.r,.s,.t,.v,.w,.y{stroke-miterlimit:10;}.d{fill:#f2c4ad;}.e{fill:#0c3fcc;}.f{fill:#17395e;}.g{fill:#2862a3;}.h{stroke:#4e91de;stroke-width:0.854px;}.i,.p{stroke:#f29d88;}.i{stroke-width:0.942px;}.j{fill:#fc0000;}.k,.r,.w{stroke:#2d0d60;}.k{stroke-width:2.355px;}.l{fill:#f2a198;}.m{fill:#31282c;opacity:0.6;mix-blend-mode:soft-light;isolation:isolate;}.n,.s{stroke:#fff;}.n{stroke-width:1.884px;}.o{stroke:#79dbcb;}.o,.p{stroke-width:0.923px;}.q{fill:#d03325;}.r{stroke-width:2.309px;}.s{stroke-width:1.847px;}.t{fill:url(#a);}.u{fill:#072b91;}.v{stroke:#d7dbdb;stroke-width:1.762px;}.w{stroke-width:2.344px;}.x{fill:#0c1e30;}.y{fill:url(#b);}.z{opacity:0.5;}.aa,.ab,.ac{stroke:none;}.ac{fill:#255e96;}</style><linearGradient id="a" x1="0.043" y1="0.541" x2="1.001" y2="0.541" gradientUnits="objectBoundingBox"><stop offset="0.061" stop-color="#d7f3f7" stop-opacity="0.502"/><stop offset="0.966" stop-color="#d7f3f7" stop-opacity="0.502"/><stop offset="1" stop-color="#d7f3f7" stop-opacity="0.2"/></linearGradient><linearGradient id="b" y1="0.5" x2="1" y2="0.5" gradientUnits="objectBoundingBox"><stop offset="0.216" stop-color="#d7f3f7" stop-opacity="0.6"/><stop offset="1" stop-color="#d7f3f7" stop-opacity="0.6"/></linearGradient></defs><g transform="translate(-49.729 -179.271)"><g transform="translate(-42 126.495)"><g transform="translate(91.729 52.776)"><path class="a" d="M399.423,129.2c-19.079-14.059-30.627-1-38.175-16.19-9.378-18.868,25.121-46.571-15.046-58.655s-69.288,49.238-82.343,45.724-6.025-44.184-48.2-45.69-34.644,48.7-50.711,59.749-43.18,4.017-64.77,32.134,5.021,76.82,5.021,76.82H391.389S418.5,143.259,399.423,129.2Z" transform="translate(-91.729 -52.776)"/><path class="b" d="M111.236,148.813l7.9,5.279,7.9-5.279a5.634,5.634,0,0,0,1.638-1.665,5.777,5.777,0,0,0-8.06-7.938l-1.477.988-1.477-.988a5.775,5.775,0,0,0-8.06,7.938A5.641,5.641,0,0,0,111.236,148.813Z" transform="translate(-99.266 -90.796)"/><path class="b" d="M613.119,141.466l7.9,5.279,7.9-5.279a5.634,5.634,0,0,0,1.638-1.665,5.777,5.777,0,0,0-8.06-7.938l-1.477.988-1.477-.988a5.775,5.775,0,0,0-8.06,7.938A5.634,5.634,0,0,0,613.119,141.466Z" transform="translate(-322.545 -87.528)"/><path class="b" d="M411.114,66.26l6.621,4.425,6.621-4.425a4.729,4.729,0,0,0,1.373-1.4,4.843,4.843,0,0,0-6.757-6.654l-1.237.828L416.5,58.21a4.841,4.841,0,0,0-6.756,6.654A4.715,4.715,0,0,0,411.114,66.26Z" transform="translate(-232.861 -54.831)"/><line class="c" x2="312.074" transform="translate(2.422 170.315)"/></g></g><g transform="translate(-52.87 128.793)"><g transform="translate(144.87 69.084)"><g transform="translate(0 9.134)"><g transform="translate(0 51.789)"><path class="d" d="M277.907,260.372l2.749,52.453H269.426l-1.585-49.755Z" transform="translate(-202.082 -219.003)"/><path class="e" d="M162.723,223.074a26.946,26.946,0,0,1-16.346-4.622s3.179-15.791,9.081-20.269S176.669,184.5,176.669,184.5l11.875-1.487s25.716,5.927,29.121,13.646,6.479,25.788,6.479,25.788-6.452,5.542-12.814,4.634l1.585,49.754H157.048Z" transform="translate(-145.571 -183.011)"/><g transform="translate(16.142 41.925)"><rect class="f" width="31.153" height="45.049" rx="5.48" transform="translate(15.546 0.298) rotate(20.188)"/><rect class="b" width="18.692" height="5.098" transform="matrix(0.939, 0.345, -0.345, 0.939, 22.294, 0)"/></g><path class="d" d="M147.668,251.594s-5.851,18.291-.629,26.918,41.369,23.544,41.992,22.575-4.471-3.874-4.471-3.874,7.1,2.906,7.654,2.075-5.812-3.944-5.812-3.944,6.988,2.7,7.542,1.384-6.781-4.567-6.781-4.567,7.127,1.315,7.265.346-9.868-4.082-9.868-4.082,5.44-3.364,5.025-4.207-9.687,3.031-9.687,3.031l-19.888-13.195,2.013-19.072S151.681,253.847,147.668,251.594Z" transform="translate(-144.87 -214.919)"/><g transform="translate(17.152 26.311)"><rect class="g" width="11.621" height="2.802" rx="1.401" transform="translate(31.063 6.077)"/><line class="h" y1="13.752" x2="1.854"/><line class="h" x1="0.998" y1="17.757" transform="translate(47.609)"/></g></g><g transform="translate(12.273)"><path class="d" d="M201.677,171.2l.72,6.239s6.475,1.946,11.875-1.487l-.718-8.111Z" transform="translate(-183.573 -124.165)"/><g transform="translate(0 26.413)"><path class="d" d="M173.357,137.675s-2.889-3.875-4.882-1.142.88,7.616,4.459,6.788Z" transform="translate(-167.822 -135.557)"/><path class="i" d="M170.445,140.566a3.5,3.5,0,0,0,3.038,2" transform="translate(-169.042 -137.887)"/></g><g transform="translate(36.895 21.316)"><path class="d" d="M236.816,128.987s1.752-4.5,4.4-2.4.182,7.71-3.488,7.866Z" transform="translate(-236.816 -126.026)"/><path class="i" d="M240.654,130.76a3.506,3.506,0,0,1-2.4,2.741" transform="translate(-237.487 -128.229)"/></g><ellipse class="d" cx="17.225" cy="21.084" rx="17.225" ry="21.084" transform="matrix(0.991, -0.134, 0.134, 0.991, 1.323, 9.003)"/><path class="j" d="M226.364,113.815s1.962,5.591,5.589,8.458l1.676-2.44s-1.119-7.08-3.469-8.238Z" transform="translate(-195.058 -97.996)"/><path class="j" d="M179.3,120.113s-.509,3.859-4.356,10.376l-3.143-2.143s-1.09-4.556-.24-7.184Z" transform="translate(-169.412 -101.959)"/><g transform="translate(8.962 18.085)"><g transform="translate(0 1.69)"><path class="k" d="M189.809,136.278a2.754,2.754,0,1,1,5.459-.74" transform="translate(-187.001 -127.801)"/><path class="j" d="M184.58,127.157l4.57-4.012s.947,1.022.624,1.612-2.856,3.19-3.916,3.343C185.11,128.208,184.58,127.157,184.58,127.157Z" transform="translate(-184.58 -123.145)"/></g><g transform="translate(16.254)"><path class="k" d="M215,132.862a2.754,2.754,0,1,1,5.459-.741" transform="translate(-214.975 -124.522)"/><path class="j" d="M221.6,122.635l-5.473-2.65s-.64,1.237-.172,1.719,3.6,2.314,4.665,2.18C221.369,123.789,221.6,122.635,221.6,122.635Z" transform="translate(-215.351 -119.985)"/></g><g transform="translate(10.819 6.402)"><path class="l" d="M205.03,137.956a4.061,4.061,0,0,0,3.111-.286c.125-.114.129-.484.059-1-.247-1.669-1.382-4.794-2.2-4.711a.32.32,0,0,0-.173.072C204.9,132.672,204.542,137.614,205.03,137.956Z" transform="translate(-204.811 -131.957)"/><path class="m" d="M205.03,138.02a4.061,4.061,0,0,0,3.111-.286c.125-.114.129-.484.059-1-2.27-.353-2.453-3.063-2.375-4.639C204.9,132.736,204.542,137.678,205.03,138.02Z" transform="translate(-204.811 -132.021)"/></g></g><g transform="translate(3.74 22.171)"><path class="b" d="M194.027,137.436c-5.473,1.518-11.416,6.038-15.5,8.312,3.293,8.275,10.641,13.625,18.335,12.581s13.367-8.179,14.325-17.051C205.3,139.98,199.686,135.867,194.027,137.436Z" transform="translate(-176.542 -132.026)"/><line class="n" x1="8.187" y1="6.339" transform="translate(0 4.655)"/><line class="n" y1="8.291" x2="6.203" transform="translate(28.116)"/></g><path class="e" d="M170.852,106.9l35.967-4.879S204.9,84,187.356,86.382,170.852,106.9,170.852,106.9Z" transform="translate(-169.226 -86.165)"/></g></g><g transform="translate(151.307 9.109)"><path class="j" d="M456.552,132s.351,12.438-6.842,17.084-27.275,9.891-20.531,24.277,18.883,5.994,23.828,12.888,2.767,23.678,15.246,22.48,14.327-11.39,22.095-11.39S503.061,207.38,511,200.187s0-12.588,4.046-23.678,1.349-12.888-8.242-22.629-16.074-30.208-16.074-30.208Z" transform="translate(-427.815 -103.59)"/><g transform="translate(3.792 11.564)"><path class="b" d="M564,122.739s-5.617-3.452-5.318-5.128,3.352.883,3.352.883-5.027-5.672-3.89-6.928,4.07,3.112,4.07,3.112-3.232-5.207-2.214-5.985,4,3.944,4,3.944-2.026-4.243-.768-4.842,3.052,4.249,3.052,4.249-.9-3.351,0-3.83,6.085,10.109,6.085,10.109Z" transform="translate(-492.163 -107.744)"/><path class="e" d="M530.006,178.516c-7.487,9.985-24.573,2.879-24.573,2.879-1.151,7.1,3.842,35.323,4.415,43.135s-5.373,13.5-5.373,13.5c1.012,2.435,1.629,8.025,1.98,12.745H455.834c.479-5.763,1.22-12.365,1.22-12.365l-.9-2.222-4.523,14.587h-16.72c1.763-16.548,11.451-68.646,14.083-75.717,3.072-8.252,23.541-17.19,23.541-17.19h9.861c13.432-.3,32.064,7.018,32.064,7.018s-8.064-30.336-7.871-32.637,5.955-4.222,9.407-5.229S537.492,168.531,530.006,178.516Z" transform="translate(-434.906 -116.704)"/><path class="d" d="M505.8,169.3s.857,5.466-.536,7.5c0,0,6.269,3.59,9.86,0,0,0-2.036-5.358.75-9.11Z" transform="translate(-467.64 -135.633)"/><path class="b" d="M505.264,182.576l.8-2.468h8.473l1.057,2.509S510.126,186.981,505.264,182.576Z" transform="translate(-467.64 -141.411)"/><path class="o" d="M475.649,246.251s.736,10.16-1.453,16.88-4.3,22.007-.026,30.761c0,0,33.754,4.924,47.419-.384" transform="translate(-452.022 -172.183)"/></g><g transform="translate(26.944)"><g transform="translate(0 21.51)"><path class="d" d="M483.813,129.131s-1.886-4.347-4.4-2.187-.873,7.465,2.729,7.48Z" transform="translate(-478.2 -126.342)"/><path class="p" d="M481.086,130.821a3.436,3.436,0,0,0,2.449,2.595" transform="translate(-479.543 -128.426)"/></g><g transform="translate(36.137 25.093)"><path class="d" d="M546.132,135.238s2.685-3.9,4.74-1.3-1.559,7.4-5.1,6.722Z" transform="translate(-545.776 -133.042)"/><path class="p" d="M549.749,137.714a3.436,3.436,0,0,1-2.9,2.076" transform="translate(-546.275 -135.216)"/></g><ellipse class="d" cx="20.67" cy="16.886" rx="20.67" ry="16.886" transform="translate(1.998 45.866) rotate(-84.469)"/><path class="q" d="M540.024,118.607s.615,5.776,3.432,9.327l2.148-1.951s.523-7.007-1.459-8.641Z" transform="translate(-506.963 -100.645)"/><path class="q" d="M492.994,114.23s-1.352,3.569-6.489,8.923l-2.518-2.752s-.016-4.592,1.386-6.909Z" transform="translate(-480.893 -98.854)"/><g transform="translate(9.948 17.742)"><path class="r" d="M499.937,131.559a2.7,2.7,0,0,1,5.375.52" transform="translate(-498.261 -123.866)"/><path class="q" d="M496.8,122.1l5.262-2.8s.674,1.188.233,1.678-3.442,2.4-4.488,2.31C497.073,123.219,496.8,122.1,496.8,122.1Z" transform="translate(-496.803 -119.296)"/><g transform="translate(14.941 1.188)"><path class="r" d="M524.743,133.961a2.7,2.7,0,0,1,5.375.52" transform="translate(-524.743 -126.172)"/><path class="q" d="M533.669,125.276l-4.627-3.758s-.889,1.036-.551,1.6,2.917,3.018,3.961,3.128C533.189,126.326,533.669,125.276,533.669,125.276Z" transform="translate(-526.451 -121.518)"/></g><g transform="translate(8.962 6.167)"><path class="l" d="M513.628,136.336a3.981,3.981,0,0,0,3.033.426c.144-.081.232-.434.281-.941.139-1.648-.241-4.884-1.042-4.99a.318.318,0,0,0-.182.03C514.689,131.265,513.238,135.9,513.628,136.336Z" transform="translate(-513.563 -130.829)"/><path class="m" d="M513.628,136.364a3.981,3.981,0,0,0,3.033.426c.144-.081.232-.434.281-.941-2.087-.848-1.652-3.473-1.224-4.96C514.689,131.293,513.238,135.928,513.628,136.364Z" transform="translate(-513.563 -130.857)"/></g></g><g transform="translate(4.138 22.269)"><path class="b" d="M502.6,136.453c-5.564.218-12.251,3.2-16.66,4.447,1.282,8.636,7.091,15.393,14.668,16.127s14.593-4.8,17.5-13.051C512.786,141.415,508.35,136.227,502.6,136.453Z" transform="translate(-485.938 -131.802)"/><line class="s" x1="6.387" y1="7.889" transform="translate(0.145)"/><line class="s" y1="6.517" x2="7.782" transform="translate(26.156 3.272)"/></g><path class="e" d="M485,102.1l35.417,3.429s2.217-17.628-15.057-19.3S485,102.1,485,102.1Z" transform="translate(-481.362 -86.119)"/></g><g transform="translate(28.902 13.513)"><g class="t" transform="translate(-481.863 -111.551)"><path class="aa" d="M 501.6012268066406 151.5618743896484 C 501.6005554199219 151.5618743896484 501.6011962890625 151.5618743896484 501.6005249023438 151.5618743896484 C 500.7371520996094 151.5618591308594 499.843017578125 151.5512390136719 498.9429321289062 151.5303039550781 C 495.9523620605469 151.4608459472656 493.1781921386719 151.0878753662109 490.6975402832031 150.4217529296875 C 488.703125 149.8861999511719 486.8917846679688 149.1607360839844 485.3138427734375 148.2654876708984 C 482.5942077636719 146.7225189208984 481.506591796875 145.2097625732422 481.4616088867188 145.1461181640625 L 481.3590698242188 145.0009765625 L 481.373046875 144.8238372802734 L 483.9869689941406 111.6993408203125 L 484.026123046875 111.2028732299805 L 484.5220336914062 111.2485885620117 L 519.2512817382812 114.4501800537109 L 519.7304077148438 114.4943389892578 L 519.6964111328125 114.9742889404297 L 517.259033203125 149.4142761230469 L 517.2373657226562 149.7208862304688 L 516.9522094726562 149.8355712890625 C 516.7769165039062 149.9060516357422 512.5330810546875 151.5618743896484 501.6012268066406 151.5618743896484 Z"/><path class="ab" d="M 484.4769287109375 111.7380065917969 L 481.863037109375 144.8624877929688 C 481.863037109375 144.8624877929688 486.014892578125 150.7384033203125 498.9543762207031 151.0389404296875 C 499.8768005371094 151.0603942871094 500.7588500976562 151.0703735351562 501.6004638671875 151.0703735351562 C 512.5643920898438 151.0703735351562 516.768798828125 149.3795776367188 516.768798828125 149.3795776367188 L 519.2061767578125 114.9395904541016 L 484.4769287109375 111.7380065917969 M 483.5753173828125 110.6677398681641 L 484.567138671875 110.7591705322266 L 519.29638671875 113.9607543945312 L 520.254638671875 114.0491027832031 L 520.1867065429688 115.0089874267578 L 517.7493286132812 149.448974609375 L 517.7059326171875 150.0621948242188 L 517.1355590820312 150.2915802001953 C 516.9566650390625 150.3635101318359 512.6278076171875 152.0533599853516 501.6004638671875 152.0533599853516 C 500.7337646484375 152.0533599853516 499.8358154296875 152.0426940917969 498.9315185546875 152.0216522216797 C 495.9017639160156 151.9512786865234 493.0885620117188 151.5726928710938 490.5700988769531 150.8964233398438 C 488.5354614257812 150.35009765625 486.6854248046875 149.6087341308594 485.0713500976562 148.6929626464844 C 482.2572631835938 147.0964202880859 481.1077880859375 145.4970397949219 481.0602416992188 145.4297485351562 L 480.8551635742188 145.1394653320312 L 480.8831176757812 144.78515625 L 483.4970092773438 111.6606750488281 L 483.5753173828125 110.6677398681641 Z"/></g><rect class="b" width="35.518" height="3.362" transform="translate(2.345) rotate(5.53)"/></g></g><g transform="translate(51.78)"><g transform="translate(18.184)"><path class="e" d="M283.9,88.707l1.443-3.473s6.82-3.9,6.255-5.545-4.366.823-4.366.823,3.448-7.227,2.256-8.155-3.568,4.18-3.568,4.18,1.629-6.638.318-7.4-2.986,7.045-2.986,7.045,1.05-6.092-.107-6.723-3.215,6.933-3.215,6.933,1.125-5.468-.744-4.95c-1.159.321-2.123,9.49-2.123,9.49L275.7,86.544Z" transform="translate(-275.704 -69.084)"/><path class="e" d="M276.861,92.822,275.7,97.588l8.2,2.164.533-1.282A18.361,18.361,0,0,1,276.861,92.822Z" transform="translate(-275.704 -80.128)"/></g><path class="b" d="M268.455,89.058a9.26,9.26,0,0,1,.77,5.195c-.384,3.079-8.465,39.443-8.465,39.443s23.473-18.086,25.974-15.392c0,0,4.81-35.979,15.007-43.1s26.552-4.041,29.053,1.539,9.428,44.83,9.428,44.83,5.965-1.155,10.967,17.508,7.312,27.706,4.041,35.21-13.75,16.273-13.75,16.273,8.311,20.457,4.4,34.184H278.655s-.489-17.562,4.644-27.584a21.541,21.541,0,0,1-2.689-8.067c-.244-3.911,2.059-43.51,2.059-43.51s-18.437,20.043-33.592,11.243-4.4-58.912,9.289-69.668Z" transform="translate(-241.699 -70.004)"/><g transform="translate(40.97 46.564)"><path class="e" d="M379.488,237.153c-9.43-.381-30.065.457-30.31.466l-.01-.235h-.024c-.24,0-21.322.443-30.752.532a3.577,3.577,0,0,0-.08-2.355c8.111-.08,25.063-.414,29.631-.5V166.9c-15.166-.952-24.526-7.174-27.173-9.175.763-.174,1.691-.466,1.86-1.568,3.18,2.26,13.273,8.421,28.892,8.511,13.942.084,21.248-3.311,24.064-5.049a2.212,2.212,0,0,0,1.616,1.766c-2.882,1.875-10.5,5.638-25.195,5.638h-.5c-.41,0-.81-.014-1.211-.024v67.745c4.47-.17,19.66-.706,28.3-.443C378.881,235.151,379.182,236.107,379.488,237.153Z" transform="translate(-318.313 -156.158)"/><g transform="translate(21.582 25.923)"><g transform="translate(0 47.019)"><path class="e" d="M375.083,293.018l-3.579,1.157s-7.4-2.654-8.278-1.157,3.461,2.786,3.461,2.786-7.735,2.07-7.668,3.579,5.5,0,5.5,0-6.107,3.071-5.835,4.563,7.3-2.3,7.3-2.3-5.315,3.157-5.044,4.446,7.36-2.056,7.36-2.056-4.889,2.694-3.281,3.78c1,.673,8.6-4.547,8.6-4.547l5.154-2.608Z" transform="translate(-358.671 -292.56)"/><path class="u" d="M384.4,294.144c.118,1.92.286,6.971-.858,10.609.966-.628,1.636-1.088,1.636-1.088l5.154-2.608-3.679-7.641Z" transform="translate(-370.242 -292.958)"/></g><path class="b" d="M408.038,249.329c-1.548,4.114-14.745,18.144-18.35,22.083a2.271,2.271,0,0,0-.452,2.326l2.354,6.312a2.268,2.268,0,0,0,2.9,1.342c3.462-1.26,10.461-4.055,15.7-7.739" transform="translate(-372.824 -225.428)"/><path class="v" d="M410.187,252.86c-5.235,3.684-12.235,6.479-15.7,7.739a2.268,2.268,0,0,1-2.9-1.342l-2.354-6.312a2.271,2.271,0,0,1,.452-2.326c3.234-3.534,14.452-15.931,17.845-21.707a5.023,5.023,0,0,0,.633-3.243c-.53-3.788-2.191-14.86-6.007-21.034" transform="translate(-372.824 -204.634)"/></g></g><g transform="translate(57.041 12.42)"><path class="d" d="M348.918,94.362a60.629,60.629,0,0,1,31.474,0s5.1,33.418-15.737,32.811S348.918,94.362,348.918,94.362Z" transform="translate(-348.366 -92.309)"/><g transform="translate(4.751 5.236)"><path class="w" d="M361.313,114.912a2.742,2.742,0,1,1,5.484,0" transform="translate(-359.14 -106.785)"/><path class="w" d="M386.622,114.912a2.742,2.742,0,1,1,5.484,0" transform="translate(-370.915 -106.785)"/><path class="x" d="M357.25,105.447l5.044-3.347s.8,1.134.4,1.673-3.244,2.765-4.311,2.774C357.633,106.554,357.25,105.447,357.25,105.447Z" transform="translate(-357.25 -102.1)"/><path class="x" d="M394.694,105.447l-5.045-3.347s-.8,1.134-.4,1.673,3.244,2.765,4.311,2.774C394.311,106.554,394.694,105.447,394.694,105.447Z" transform="translate(-372.086 -102.1)"/></g><g transform="translate(14.525 12.616)"><path class="l" d="M375.639,122.032a4.278,4.278,0,0,0,3.291.142c.146-.1.2-.488.2-1.037-.022-1.779-.765-5.2-1.633-5.235a.341.341,0,0,0-.192.051C376.249,116.492,375.176,121.605,375.639,122.032Z" transform="translate(-375.528 -115.902)"/><path class="m" d="M375.639,122.076a4.278,4.278,0,0,0,3.291.142c.146-.1.2-.488.2-1.037-2.322-.691-2.129-3.548-1.825-5.184C376.249,116.536,375.176,121.649,375.639,122.076Z" transform="translate(-375.528 -115.946)"/></g><g transform="translate(0.073 3.553)"><g class="y" transform="translate(-348.502 -98.954)"><path class="aa" d="M 377.2432250976562 113.9906616210938 C 377.1756286621094 113.9906616210938 377.1073608398438 113.9897079467773 377.0379028320312 113.9877624511719 C 373.8006896972656 113.8977127075195 370.8924255371094 111.9868316650391 368.5556030273438 110.451416015625 C 367.0462036132812 109.4596481323242 365.6204833984375 108.5228881835938 364.7362976074219 108.5228881835938 C 363.7787475585938 108.5228881835938 362.2635803222656 109.3355178833008 360.6594543457031 110.1958541870117 C 358.4323120117188 111.3903350830078 355.9080505371094 112.7441864013672 353.4600524902344 112.7441864013672 C 353.3401184082031 112.7441864013672 353.2198181152344 112.7408752441406 353.1024169921875 112.7343521118164 C 351.13134765625 112.6248016357422 349.365234375 111.1705856323242 348.3779907226562 108.8443145751953 C 347.8019714355469 107.4869537353516 347.5411071777344 105.936882019043 347.6434326171875 104.4796447753906 C 347.7577819824219 102.8515319824219 348.3078002929688 101.4243545532227 349.2340393066406 100.3523635864258 L 349.322998046875 100.249397277832 L 349.4389038085938 100.1780776977539 C 349.5785827636719 100.0921249389648 352.9793090820312 98.07296752929688 363.3655395507812 98.07296752929688 C 364.1573791503906 98.07296752929688 364.9815063476562 98.08482360839844 365.8149719238281 98.10819244384766 C 372.5119934082031 98.29573822021484 375.9759826660156 98.625244140625 378.1698303222656 99.28343200683594 C 380.6629943847656 100.0314254760742 381.8200073242188 101.3140563964844 382.0386352539062 103.5722122192383 L 382.0691833496094 103.8855972290039 C 382.341064453125 106.6604080200195 382.7134094238281 110.4606552124023 380.7987365722656 112.5721740722656 C 379.9453125 113.5133514404297 378.7490539550781 113.990608215332 377.2432250976562 113.9906616210938 Z"/><path class="ac" d="M 363.3655395507812 98.95376586914062 C 353.1091613769531 98.95376586914062 349.9005126953125 100.92822265625 349.9005126953125 100.92822265625 C 346.91015625 104.3891677856445 349.0523986816406 111.6271057128906 353.1513061523438 111.8549118041992 C 353.2538757324219 111.8606185913086 353.356689453125 111.8633880615234 353.4600524902344 111.8633880615234 C 357.4880981445312 111.8633880615234 362.1002197265625 107.6420822143555 364.7362976074219 107.6420822143555 C 367.4400329589844 107.6420822143555 371.8721313476562 112.9629364013672 377.0624694824219 113.1073150634766 C 377.1236267089844 113.1090240478516 377.1836853027344 113.10986328125 377.2431945800781 113.10986328125 C 382.2349853515625 113.10986328125 381.4990539550781 107.1448974609375 381.1619262695312 103.6570816040039 C 380.8201904296875 100.1271514892578 377.9736938476562 99.32982635498047 365.790283203125 98.9886474609375 C 364.9410705566406 98.96482849121094 364.1339721679688 98.95376586914062 363.3655395507812 98.95376586914062 M 363.3655395507812 97.19217681884766 C 364.1657409667969 97.19217681884766 364.9981384277344 97.20414733886719 365.8396606445312 97.22774505615234 C 372.7086791992188 97.42010498046875 376.1191101074219 97.74860382080078 378.4229431152344 98.43979644775391 C 379.8639831542969 98.87213134765625 380.9208679199219 99.48888397216797 381.6539611816406 100.3252944946289 C 382.3765563964844 101.1496887207031 382.7891540527344 102.1839981079102 382.9153137207031 103.4873428344727 L 382.9457702636719 103.799674987793 C 383.0748596191406 105.1169967651367 383.2355041503906 106.7564468383789 383.14111328125 108.3509826660156 C 383.0154724121094 110.4741668701172 382.4626770019531 112.0485076904297 381.451171875 113.1639785766602 C 380.4237670898438 114.2969741821289 379.0079956054688 114.871452331543 377.2431945800781 114.871452331543 C 377.16748046875 114.871452331543 377.0910339355469 114.8703918457031 377.0132141113281 114.8682174682617 C 373.526123046875 114.7712173461914 370.5019226074219 112.7841644287109 368.0719299316406 111.1875381469727 C 367.266845703125 110.6585464477539 366.5063781738281 110.1588821411133 365.8617553710938 109.8196868896484 C 365.148193359375 109.4442138671875 364.8369750976562 109.4036712646484 364.7362976074219 109.4036712646484 C 364.0000305175781 109.4036712646484 362.4464416503906 110.2369079589844 361.0757446289062 110.972053527832 C 358.7572326660156 112.2155532836914 356.1293334960938 113.6249771118164 353.4600524902344 113.6249771118164 C 353.3238525390625 113.6249771118164 353.1871032714844 113.6212158203125 353.0535583496094 113.6137924194336 C 350.7395629882812 113.4851837158203 348.6885986328125 111.8308334350586 347.5671997070312 109.1884078979492 C 346.3979187011719 106.4331665039062 346.2537841796875 102.4543914794922 348.5675659179688 99.77651214599609 L 348.7455139160156 99.57056427001953 L 348.977294921875 99.42793273925781 C 349.3491821289062 99.1990966796875 352.9123840332031 97.19217681884766 363.3655395507812 97.19217681884766 Z"/></g><g class="z" transform="translate(3.527 0)"><path class="b" d="M355.1,111.6a3.539,3.539,0,0,0,1.122.25c3.152.175,6.705-2.4,9.41-3.609l3.973-9.236-.744-.022c-2.792-.079-5.135-.018-7.094.12Z" transform="translate(-355.098 -98.954)"/><path class="b" d="M384.976,109.925l4.2-10.379q-1.345-.12-3-.2l-3.517,9.146C383.37,108.868,384.145,109.379,384.976,109.925Z" transform="translate(-367.921 -99.134)"/></g></g><g transform="translate(0.696 17.768)"><path class="e" d="M380.931,128.92v0s-9.493-3.46-15.67-3.378-15.584,3.375-15.592,3.378c1.413,6.771,5.4,13.463,15.592,13.716C375.649,142.89,379.59,135.948,380.931,128.92Z" transform="translate(-349.668 -125.536)"/></g></g></g></g></g></g></svg>