<svg xmlns="http://www.w3.org/2000/svg" width="62.633" height="55" viewBox="0 0 62.633 55"><defs><style>.a{fill:#fff;}.b{fill:#ed5d4a;}</style></defs><g transform="translate(-71 -460)"><circle class="a" cx="27.5" cy="27.5" r="27.5" transform="translate(71 460)"/><circle class="b" cx="24.5" cy="24.5" r="24.5" transform="translate(80 463)"/><g transform="translate(99 473.5)"><g transform="translate(0 0)"><path class="a" d="M34.079,54.406,21.572,41.9a1.9,1.9,0,0,0-2.681,0l-1.136,1.136a1.881,1.881,0,0,0-.553,1.34,1.919,1.919,0,0,0,.553,1.356l7.3,7.313H1.871A1.85,1.85,0,0,0,0,54.907v1.606a1.921,1.921,0,0,0,1.871,1.946H25.135l-7.379,7.353a1.877,1.877,0,0,0,0,2.662l1.136,1.132a1.9,1.9,0,0,0,2.681,0L34.08,57.1a1.912,1.912,0,0,0,0-2.69Z" transform="translate(0 -41.346)"/></g></g></g></svg>