<svg xmlns="http://www.w3.org/2000/svg" width="189.041" height="181.247" viewBox="0 0 189.041 181.247"><defs><style>.a{fill:#ebebeb;}.b,.l{fill:#fff;}.c{fill:#f7a100;}.d,.l{opacity:0.2;}.e{fill:#e0e0e0;}.f{fill:#455a64;}.g{fill:#37474f;}.h{fill:#263238;}.i{fill:#0f4fff;}.j{fill:#0c3fcc;}.k,.m{opacity:0.1;}.m,.v{fill:#ad0000;}.n{fill:#fc0000;}.o{fill:#ffd6a7;}.p{fill:#f28f8f;}.q{fill:#ffa8a7;}.r{fill:#fed6a7;}.s{opacity:0.3;}.t,.u{fill:red;}.u{opacity:0.7;}</style></defs><g transform="translate(-92.815 -86.152)"><g transform="translate(251.979 253.163)"><ellipse class="a" cx="14.939" cy="7.118" rx="14.939" ry="7.118"/></g><g transform="translate(87.291 173.967)"><path class="b" d="M119.827,344.6a.325.325,0,0,1-.182-.592c12.222-8.451,9.855-20.237,9.829-20.354a.332.332,0,0,1,.65-.137c0,.124,2.5,12.313-10.089,21.024A.338.338,0,0,1,119.827,344.6Z" transform="translate(-105.666 -256.941)"/><path class="b" d="M112.708,346.405a.332.332,0,0,1-.325-.286c-.93-7.7,1.3-21,3.12-24.957a.325.325,0,0,1,.455-.182.319.319,0,0,1,.156.429c-1.8,3.9-3.953,17.24-3.062,24.606a.325.325,0,0,1-.286.358Z" transform="translate(-103.097 -256.133)"/><path class="b" d="M110.625,347.824a.274.274,0,0,1-.143-.033c-2.256-1.1-3.686-5.019-3.744-5.2a.325.325,0,1,1,.611-.221c0,.039,1.4,3.836,3.419,4.817a.325.325,0,0,1-.143.618Z" transform="translate(-101.19 -263.552)"/><path class="b" d="M112.5,351.167a.318.318,0,0,1-.3-.208.325.325,0,0,1,.176-.422c3.8-1.521,6.163-6.039,6.189-6.091a.326.326,0,0,1,.579.3c-.1.2-2.5,4.785-6.5,6.4a.279.279,0,0,1-.143.026Z" transform="translate(-103.1 -264.294)"/><path class="c" d="M315.1,285.874a23.436,23.436,0,0,1-3.12-9.6c-.28-5,.819-7.079,2.327-7.677s1.625,1.242,2.4,2.327,2.353.468,2.938-2.919,2.717-9.1,7.151-10.213c4.876-1.209,2.262,4.512,1.034,6.741s-2.178,5.272-1.372,6.1,2.061-.7,3.25.715c1.45,1.71-3.055,7.866-5.643,9.355Z" transform="translate(-172.999 -233.976)"/><path class="b" d="M322.622,285.677h0a.325.325,0,0,1-.312-.338,46.805,46.805,0,0,1,7.281-22.623.319.319,0,0,1,.455-.072.325.325,0,0,1,.071.449,46.207,46.207,0,0,0-7.151,22.278.325.325,0,0,1-.345.306Z" transform="translate(-176.63 -235.71)"/><path class="b" d="M321.723,289.728a.345.345,0,0,1-.156-.039c-1.82-1.008-2.828-4-2.867-4.122a.323.323,0,1,1,.611-.208s.975,2.88,2.6,3.757a.331.331,0,0,1,.124.442A.319.319,0,0,1,321.723,289.728Z" transform="translate(-175.361 -243.602)"/><path class="b" d="M323.677,286.768a.325.325,0,0,1-.312-.247.319.319,0,0,1,.234-.39c4.694-1.19,6.319-3.647,6.332-3.673a.327.327,0,1,1,.553.351c-.072.111-1.762,2.691-6.722,3.952Z" transform="translate(-176.996 -242.613)"/><path class="c" d="M195.192,263.043s-6.234-1.521-6.559-13.2c-.345-12.6,1.528-27.3-5.851-28.493s-11.474,7.8-11.383,18.3c.084,9.192,3.79,29.15,23.767,33.063Z" transform="translate(-123.824 -221.247)"/><path class="d" d="M195.192,263.043s-6.234-1.521-6.559-13.2c-.345-12.6,1.528-27.3-5.851-28.493s-11.474,7.8-11.383,18.3c.084,9.192,3.79,29.15,23.767,33.063Z" transform="translate(-123.824 -221.247)"/><path class="b" d="M199.024,273.778h-.059a16.326,16.326,0,0,1-10.876-7.352c-8.074-12.046-5.532-34.539-4.694-38.465a.332.332,0,0,1,.384-.254.338.338,0,0,1,.254.39c-.826,3.9-3.354,26.107,4.6,37.965a15.68,15.68,0,0,0,10.453,7.073.325.325,0,0,1,.26.384A.319.319,0,0,1,199.024,273.778Z" transform="translate(-127.656 -223.505)"/><path class="c" d="M187.233,313.3c-6.442.871-16.9.858-22.941-3.9s-4.778-8.854-2.457-10.564,4.336-3.66.345-7.456-10.4-9.894-12.482-19.041-1.053-14.867,3.029-16.772c3.959-1.846,5.006,1.092,7.43,7.151s7.879.865,12.547,2.756,4.479,5.636,4.772,8.854,1.833,4.109,4.479,4.109,5.279,1.521,5.279,4.551Z" transform="translate(-115.864 -233.064)"/><path class="b" d="M190.769,309.37a.194.194,0,0,1-.085,0c-.28-.078-6.943-2.015-16.649-10.928-10.336-9.491-15.212-23.728-15.264-23.871a.332.332,0,0,1,.208-.41.325.325,0,0,1,.41.2c.046.143,4.876,14.224,15.088,23.6,9.569,8.8,16.311,10.765,16.382,10.785a.325.325,0,0,1,.221.4.318.318,0,0,1-.312.221Z" transform="translate(-119.401 -239.756)"/><path class="b" d="M184.869,305.391a.312.312,0,0,1-.3-.208c-2.087-5.357-2.561-16.818-2.6-17.305a.332.332,0,0,1,.312-.338.345.345,0,0,1,.338.312c0,.117.488,11.838,2.535,17.1a.325.325,0,0,1-.189.423.337.337,0,0,1-.1.019Z" transform="translate(-127.523 -244.444)"/><path class="b" d="M185.229,325.238a15.374,15.374,0,0,1-1.794-.091.327.327,0,1,1,.078-.65c.059,0,6.111.689,8.887-2.139a.325.325,0,1,1,.462.455C190.852,324.887,187.348,325.238,185.229,325.238Z" transform="translate(-127.935 -256.587)"/></g><g transform="translate(156.697 86.152)"><path class="e" d="M213.367,336.463l61.108-35.287a.689.689,0,0,0,0-1.3l-5.649-3.25a2.509,2.509,0,0,0-2.256,0L205.442,331.88a.689.689,0,0,0,0,1.3l5.669,3.25A2.509,2.509,0,0,0,213.367,336.463Z" transform="translate(-204.982 -159.714)"/><path class="f" d="M278.126,93.993l-55.1,31.815a6.228,6.228,0,0,0-2.815,4.876V261.4c0,1.794,1.261,2.522,2.815,1.625l55.1-31.815a6.208,6.208,0,0,0,2.815-4.876V95.618C280.941,93.824,279.686,93.1,278.126,93.993Z" transform="translate(-210.31 -88.769)"/><path class="g" d="M219.2,123.2l55.1-31.815c1.391-.806,2.542-.306,2.776,1.092a6.293,6.293,0,0,0-2.776-4.343l-2.288-1.3a6.221,6.221,0,0,0-5.63,0l-55.108,31.789a5.792,5.792,0,0,0-1.989,2.1l7.925,4.551A5.688,5.688,0,0,1,219.2,123.2Z" transform="translate(-206.489 -86.164)"/><path class="h" d="M208,272.832a6.228,6.228,0,0,0,2.815,4.876l2.295,1.3a6.306,6.306,0,0,0,5.149.221c-1.3.507-2.334-.241-2.334-1.846V146.7a5.721,5.721,0,0,1,.826-2.776l-7.924-4.551a5.792,5.792,0,0,0-.826,2.75Z" transform="translate(-206.038 -104.782)"/><path class="b" d="M225.971,153.624l52.091-30.066c.936-.533,1.69-.1,1.69.975v96.745a3.725,3.725,0,0,1-1.69,2.925L225.99,254.27c-.936.54-1.69.1-1.69-.975V156.549a3.732,3.732,0,0,1,1.671-2.925Z" transform="translate(-211.741 -99.169)"/><path class="g" d="M266.388,126.218a2.2,2.2,0,0,0-.988,1.716c0,.65.442.891.988.572a2.178,2.178,0,0,0,.988-1.716C267.376,126.16,266.934,125.906,266.388,126.218Z" transform="translate(-226.123 -100.133)"/><path class="g" d="M264.82,308.452a8.646,8.646,0,0,0-3.9,6.774c0,2.49,1.749,3.5,3.9,2.256a8.653,8.653,0,0,0,3.9-6.774C268.734,308.218,266.979,307.2,264.82,308.452Z" transform="translate(-224.555 -163.76)"/><path class="g" d="M251.48,141.625a4.375,4.375,0,0,0-1.95,3.432c0,1.261.884,1.775,1.95,1.144a4.375,4.375,0,0,0,1.983-3.432C253.463,141.508,252.579,140.994,251.48,141.625Z" transform="translate(-220.57 -105.477)"/><path class="g" d="M260,135.7c0,.845.65,1.164,1.411.715l13-7.521a3.016,3.016,0,0,0,1.411-2.34c0-.839-.65-1.157-1.411-.709l-13,7.521A3.016,3.016,0,0,0,260,135.7Z" transform="translate(-224.233 -99.977)"/><path class="g" d="M213.91,176.255A3.5,3.5,0,0,1,215.5,179c0,1.014-.709,1.424-1.586.917a3.511,3.511,0,0,1-1.58-2.743C212.33,176.164,213.039,175.755,213.91,176.255Z" transform="translate(-207.553 -117.614)"/><path class="g" d="M213.91,195.033a3.5,3.5,0,0,1,1.586,2.743c0,1.008-.709,1.417-1.586.917a3.51,3.51,0,0,1-1.58-2.743C212.33,194.935,213.039,194.526,213.91,195.033Z" transform="translate(-207.553 -124.183)"/><path class="f" d="M213.146,176.638a3.5,3.5,0,0,1,1.586,2.743c0,1.008-.709,1.417-1.586.917a3.5,3.5,0,0,1-1.586-2.743C211.566,176.54,212.275,176.15,213.146,176.638Z" transform="translate(-207.283 -117.749)"/><path class="f" d="M213.146,195.405a3.5,3.5,0,0,1,1.586,2.75c0,1.008-.709,1.417-1.586.91a3.484,3.484,0,0,1-1.586-2.743C211.566,195.314,212.275,194.9,213.146,195.405Z" transform="translate(-207.283 -124.315)"/><path class="b" d="M295.972,129.241c0-1.079-.754-1.515-1.69-.975l-6.234,3.595L242.21,158.332a3.725,3.725,0,0,0-1.69,2.925v96.719c0,1.079.754,1.515,1.69.975l45.857-26.478,6.215-3.588a3.725,3.725,0,0,0,1.69-2.925Z" transform="translate(-217.417 -100.815)"/><path class="i" d="M296.269,128.879a1.671,1.671,0,0,0-2.665-1.541l-5.948,3.439h0L241.532,157.43a4.329,4.329,0,0,0-2.015,3.491v96.694a1.8,1.8,0,0,0,.819,1.658,1.489,1.489,0,0,0,.767.2,2.224,2.224,0,0,0,1.079-.319L288.338,232.5h0l5.935-3.426a4.388,4.388,0,0,0,2.015-3.491Zm-8.6,102.512h0l-.533.312h0l-45.577,26.315a.65.65,0,0,1-.546.117c-.085-.052-.169-.234-.169-.533V160.9a3.127,3.127,0,0,1,1.365-2.366L287.74,132.2h0l6.5-3.764a.65.65,0,0,1,.546-.117c.085.052.169.234.169.533V225.6a3.127,3.127,0,0,1-1.365,2.366l-5.935,3.426Z" transform="translate(-217.064 -100.453)"/><path class="j" d="M277.484,163.683c5.851-3.367,10.564-.65,10.564,6.1s-4.733,14.952-10.564,18.293-10.564.65-10.564-6.1S271.653,167.056,277.484,163.683Z" transform="translate(-226.655 -112.784)"/><path class="i" d="M281.326,172.368c1.892-1.092,3.426-.208,3.426,1.95a7.573,7.573,0,0,1-3.426,5.935c-1.892,1.092-3.426.208-3.426-1.95A7.574,7.574,0,0,1,281.326,172.368Z" transform="translate(-230.497 -116.164)"/><path class="i" d="M286.33,188.377c0-3.588-2.516-5.045-5.63-3.25l-1.95,1.125A12.45,12.45,0,0,0,273.12,196v.969c1.8.592,4.063.273,6.5-1.151a20.8,20.8,0,0,0,6.676-6.611Z" transform="translate(-228.824 -120.524)"/><path class="c" d="M281.326,172.368c1.892-1.092,3.426-.208,3.426,1.95a7.573,7.573,0,0,1-3.426,5.935c-1.892,1.092-3.426.208-3.426-1.95A7.574,7.574,0,0,1,281.326,172.368Z" transform="translate(-230.497 -116.164)"/><path class="c" d="M286.33,188.377c0-3.588-2.516-5.045-5.63-3.25l-1.95,1.125A12.45,12.45,0,0,0,273.12,196v.969c1.8.592,4.063.273,6.5-1.151a20.8,20.8,0,0,0,6.676-6.611Z" transform="translate(-228.824 -120.524)"/><path class="i" d="M251.125,220.534l13.593-7.847c.65-.358,1.125-.072,1.125.65v.449a2.483,2.483,0,0,1-1.125,1.95l-13.593,7.847c-.618.358-1.125.065-1.125-.65v-.449A2.49,2.49,0,0,1,251.125,220.534Z" transform="translate(-220.734 -130.383)"/><path class="k" d="M251.125,220.534l13.593-7.847c.65-.358,1.125-.072,1.125.65v.449a2.483,2.483,0,0,1-1.125,1.95l-13.593,7.847c-.618.358-1.125.065-1.125-.65v-.449A2.49,2.49,0,0,1,251.125,220.534Z" transform="translate(-220.734 -130.383)"/><path class="i" d="M250.566,226.589l41.124-23.741c.306-.182.559-.039.559.325v4.8a1.261,1.261,0,0,1-.559.975l-41.124,23.741c-.312.182-.566.033-.566-.325v-4.8A1.248,1.248,0,0,1,250.566,226.589Z" transform="translate(-220.734 -126.966)"/><path class="l" d="M250.566,226.589l41.124-23.741c.306-.182.559-.039.559.325v4.8a1.261,1.261,0,0,1-.559.975l-41.124,23.741c-.312.182-.566.033-.566-.325v-4.8A1.248,1.248,0,0,1,250.566,226.589Z" transform="translate(-220.734 -126.966)"/><path class="i" d="M251.125,253.364l13.593-7.847c.65-.358,1.125-.065,1.125.65v.449a2.477,2.477,0,0,1-1.125,1.95l-13.593,7.847c-.618.364-1.125.071-1.125-.65v-.449A2.5,2.5,0,0,1,251.125,253.364Z" transform="translate(-220.734 -141.871)"/><path class="m" d="M251.125,253.364l13.593-7.847c.65-.358,1.125-.065,1.125.65v.449a2.477,2.477,0,0,1-1.125,1.95l-13.593,7.847c-.618.364-1.125.071-1.125-.65v-.449A2.5,2.5,0,0,1,251.125,253.364Z" transform="translate(-220.734 -141.871)"/><path class="i" d="M250.566,259.419l41.124-23.741c.306-.182.559-.033.559.325v4.8a1.261,1.261,0,0,1-.559.975l-41.124,23.741c-.312.182-.566.039-.566-.325v-4.8a1.248,1.248,0,0,1,.566-.975Z" transform="translate(-220.734 -138.454)"/><path class="l" d="M250.566,259.419l41.124-23.741c.306-.182.559-.033.559.325v4.8a1.261,1.261,0,0,1-.559.975l-41.124,23.741c-.312.182-.566.039-.566-.325v-4.8a1.248,1.248,0,0,1,.566-.975Z" transform="translate(-220.734 -138.454)"/><path class="n" d="M275.495,271.3l16.252-9.368c.65-.364,1.131-.071,1.131.65V267.6a2.483,2.483,0,0,1-1.131,1.95l-16.252,9.374c-.65.358-1.125.065-1.125-.65v-5.025A2.51,2.51,0,0,1,275.495,271.3Z" transform="translate(-229.262 -147.615)"/><path class="k" d="M275.495,271.3l16.252-9.368c.65-.364,1.131-.071,1.131.65V267.6a2.483,2.483,0,0,1-1.131,1.95l-16.252,9.374c-.65.358-1.125.065-1.125-.65v-5.025A2.51,2.51,0,0,1,275.495,271.3Z" transform="translate(-229.262 -147.615)"/></g><g transform="translate(224.891 155.285)"><path class="o" d="M326.406,232.011S318.423,221,317.954,219.66a6.663,6.663,0,0,1,.117-3.14c.117-.683.221-2.2.338-2.6.195-.741-.761-.592-1.3.085s-.722,2.028-1,2.249-2.405-2.88-3.517-4.31-1.807-2.3-2.49-1.768c-.488.384-.123,1.216.683,2.438a21.952,21.952,0,0,1,1.3,2.048c.124.267-.54.286-.9.839-.28.429,0,1.125-.39,1.456a1.229,1.229,0,0,0-.312,1.606,10.622,10.622,0,0,0,2.75,2.912,6.573,6.573,0,0,1,2.386,2.243c.709,1.125,7.066,12.612,7.5,13.3s1.255,2.093,2.509,2.132,11.526-8.8,12.053-9.244c1.69-1.411,2.23-1.612,2.516-.345a12.507,12.507,0,0,1,.221,1.365c.2,1.612,1.3,7.372,1.3,7.372s5.2,2.516,9.472,1.3,5.714-3.029,5.714-3.029l-2.139-3.484c.579-1.437,3.25-7.261,4.115-11.337l-13.392-2.165c-.273-.059-.715-.169-1.3-.319-.735-.2-2.6-.839-4.011.4-4.6,4.011-13.756,12.352-13.756,12.352" transform="translate(-309.881 -198.635)"/><path class="g" d="M374.849,347.734l-2.4,3.335a7.97,7.97,0,0,0,3.484.748c2.152.078,2.743-.65,2.821-.793.364-.78-.2-2.184-.358-3.393Z" transform="translate(-331.775 -246.788)"/><path class="g" d="M368.28,350.2s-2.912-.189-4.921-.436-3.6.728-3.133,1.554,1.58,1.515,3.309,2.093c1.476.5,3.25.858,4.785,1.3s2.6,1.021,3.491.709c.995-.345,1.424-.741,1.339-1.469a31.544,31.544,0,0,0-.806-3.068Z" transform="translate(-327.469 -247.523)"/><path class="p" d="M380,342.448s-.364,3.029-.39,3.679-2.958.858-3.517-.332L376,342.09Z" transform="translate(-333.017 -244.849)"/><path class="q" d="M373.074,345.5l1.047,4.6s.1.559-2.295.917-6.15-1.255-6.793-1.58-.715-.982,1.638-.852,3.185.136,3.185.136l-.767-2.035Z" transform="translate(-329.044 -246.043)"/><path class="r" d="M383.587,227.752l1.658-.462s3.465,10.967,3.849,12.027a3.77,3.77,0,0,1,.071,3.484c-.891,1.554-5.578,7.8-5.578,7.8l-2.977-2.912,3.38-6.189L381,235.455Z" transform="translate(-334.63 -204.679)"/><path class="g" d="M358.691,201.338a4.889,4.889,0,0,1,.072-4.726c1.651-3.062,5.331-4.551,9.712-3.985a8.294,8.294,0,0,1,5.727,4.466c1.443,2.789,1.58,8.406,1.95,10.531Z" transform="translate(-326.76 -192.508)"/><path class="q" d="M358.347,207.94s-1.04,1.983-.858,2.165a2.724,2.724,0,0,0,.871.325Z" transform="translate(-326.532 -197.908)"/><path class="o" d="M361.971,197.866c-1.131.735-3.081,2.087-3.166,6.54-.091,4.551.559,6.052,1.235,6.579.455.358,3.127.175,4.271-.091s4.44-1.9,5.63-4.375c1.4-2.912,1.112-7.151-.962-8.451A7.242,7.242,0,0,0,361.971,197.866Z" transform="translate(-326.998 -194.101)"/><path class="i" d="M378.651,250.82c2,3.12,3.9,5.851,4.317,9.374.858,7.4-1.95,15.869-2.555,21.349a9.874,9.874,0,0,1,1.885,5.344c0,2.269-3.647,23.624-3.647,23.624s-2.652.806-4-.357l-2.5-39.285,1.3-4.785Z" transform="translate(-331.67 -212.913)"/><path class="d" d="M378.651,250.82c2,3.12,3.9,5.851,4.317,9.374.858,7.4-1.95,15.869-2.555,21.349a9.874,9.874,0,0,1,1.885,5.344c0,2.269-3.647,23.624-3.647,23.624s-2.652.806-4-.357l-2.5-39.285,1.3-4.785Z" transform="translate(-331.67 -212.913)"/><path class="i" d="M372.15,277.555l1.3-4.785a31.939,31.939,0,0,0,7.151-2.841,9.62,9.62,0,0,1-5.24,3.816l-2.009,6.143-.169,14.074Z" transform="translate(-331.67 -219.599)"/><path class="s" d="M372.15,277.555l1.3-4.785a31.939,31.939,0,0,0,7.151-2.841,9.62,9.62,0,0,1-5.24,3.816l-2.009,6.143-.169,14.074Z" transform="translate(-331.67 -219.599)"/><path class="i" d="M371.8,250.82c1.073,1.755,3.634,4.746,3.088,7.626-.65,3.484-2.535,5.935-8.269,7.638l-5.383,19.5s2.8,2.6,3.66,5.116,3.953,21.68,3.953,21.68-.962,1.567-3.985,1.19c0,0-10.538-24.053-11.279-25.62a7.8,7.8,0,0,1-.891-5.233c.332-2.522,3.9-30.131,3.9-30.131Z" transform="translate(-324.818 -212.913)"/><path class="d" d="M371.8,250.82c1.073,1.755,3.634,4.746,3.088,7.626-.65,3.484-2.535,5.935-8.269,7.638l-5.383,19.5s2.8,2.6,3.66,5.116,3.953,21.68,3.953,21.68-.962,1.567-3.985,1.19c0,0-10.538-24.053-11.279-25.62a7.8,7.8,0,0,1-.891-5.233c.332-2.522,3.9-30.131,3.9-30.131Z" transform="translate(-324.818 -212.913)"/><path class="t" d="M375.123,226.663,361.731,224.5c-.273-.059-.715-.169-1.3-.319h0s-.572,8.4-4.011,10.323h0c.085.4.156.852.221,1.365.2,1.612,1.3,7.372,1.3,7.372s5.2,2.516,9.472,1.3,5.714-3.029,5.714-3.029l-2.139-3.484C371.586,236.577,374.278,230.752,375.123,226.663Z" transform="translate(-326.166 -203.591)"/><path class="u" d="M375.123,226.663,361.731,224.5c-.273-.059-.715-.169-1.3-.319h0s-.572,8.4-4.011,10.323h0c.085.4.156.852.221,1.365.2,1.612,1.3,7.372,1.3,7.372s5.2,2.516,9.472,1.3,5.714-3.029,5.714-3.029l-2.139-3.484C371.586,236.577,374.278,230.752,375.123,226.663Z" transform="translate(-326.166 -203.591)"/><path class="v" d="M376.761,243.35a37.8,37.8,0,0,1-5.571,2.75,10.467,10.467,0,0,0,4.986-1.378Z" transform="translate(-331.334 -210.299)"/><path class="g" d="M363.1,197.437s-.65,4.226.884,6.709c0,0,.572-1.684,2-1.365s1.5,2.2.5,3.25a2.074,2.074,0,0,1-2.106.65s-.228,3.055-.351,5.617-.8,8.146,2.08,10.4,10.109,3.049,13.5-1.684c1.885-2.633-.618-7.287-1.781-12.508-1.073-4.8-1.677-11.91-6.767-13.054A8.439,8.439,0,0,0,363.1,197.437Z" transform="translate(-328.454 -193.451)"/></g><g transform="translate(254.598 97.095)"><path class="a" d="M379.191,107.439l-1.073.65a5.659,5.659,0,0,0,.15-1.164c0-2.178-1.528-3.055-3.413-1.95a6.02,6.02,0,0,0-1.515,1.3h0c0-2.925-2.054-4.115-4.59-2.652a10.148,10.148,0,0,0-4.59,7.951v.436a2.782,2.782,0,0,0-1.866.429,7.541,7.541,0,0,0-3.413,5.909,3.961,3.961,0,0,0,.085.819l-.572.332c-1.554.9-2.815,2.646-2.815,3.9s1.261,1.554,2.815.65l20.8-11.994c1.554-.9,2.815-2.646,2.815-3.9S380.745,106.536,379.191,107.439Z" transform="translate(-355.58 -102.997)"/></g></g></svg>