<svg xmlns="http://www.w3.org/2000/svg" width="29.5" height="34.643" viewBox="0 0 29.5 34.643"><defs><style>.a{fill:#24cd5f;}</style></defs><g transform="translate(0 0.001)"><path class="a" d="M29.466,9.4V9.371c-.015-.333-.025-.685-.031-1.076a3.672,3.672,0,0,0-3.457-3.6A14.247,14.247,0,0,1,16.28.611L16.257.59a2.217,2.217,0,0,0-3.013,0l-.022.021A14.249,14.249,0,0,1,3.525,4.7,3.671,3.671,0,0,0,.068,8.3c-.006.389-.016.741-.031,1.076l0,.063c-.077,4.062-.174,9.116,1.517,13.7a17.445,17.445,0,0,0,4.185,6.519,21.894,21.894,0,0,0,8.19,4.844,2.532,2.532,0,0,0,.336.091,2.48,2.48,0,0,0,.975,0,2.534,2.534,0,0,0,.337-.092,21.907,21.907,0,0,0,8.181-4.847,17.47,17.47,0,0,0,4.185-6.521C29.639,18.532,29.543,13.468,29.466,9.4ZM26.034,22.43c-1.784,4.836-5.424,8.157-11.13,10.152a.523.523,0,0,1-.064.017.457.457,0,0,1-.179,0,.515.515,0,0,1-.064-.017C8.885,30.591,5.242,27.271,3.46,22.436,1.9,18.207,1.989,13.566,2.067,9.473V9.45c.016-.352.026-.72.032-1.125a1.632,1.632,0,0,1,1.538-1.6A17.835,17.835,0,0,0,9.692,5.4a15.837,15.837,0,0,0,4.933-3.314.188.188,0,0,1,.252,0A15.843,15.843,0,0,0,19.81,5.4a17.835,17.835,0,0,0,6.054,1.332,1.631,1.631,0,0,1,1.538,1.6c.006.407.017.775.033,1.125C27.511,13.548,27.6,18.192,26.034,22.43Zm0,0" transform="translate(0)"/><path class="a" d="M99.032,128.41a8.634,8.634,0,1,0,8.633,8.633A8.643,8.643,0,0,0,99.032,128.41Zm0,15.234a6.6,6.6,0,1,1,6.6-6.6A6.608,6.608,0,0,1,99.032,143.644Zm0,0" transform="translate(-84.282 -119.723)"/><path class="a" d="M160.506,212.289l-4.01,4.01-1.088-1.088a1.016,1.016,0,1,0-1.438,1.437l1.807,1.807a1.016,1.016,0,0,0,1.437,0l4.729-4.729a1.016,1.016,0,0,0-1.438-1.437Zm0,0" transform="translate(-143.275 -197.649)"/></g></svg>